<svg xmlns="http://www.w3.org/2000/svg" viewBox="0 0 200 200" fill="none">
<g stroke="currentColor" fill="none">
<circle cx="100" cy="100" r="98" stroke-width="0.6"/>
<circle cx="100" cy="100" r="94" stroke-width="0.6"/>
<g fill="currentColor" stroke="none">
<circle cx="189.00" cy="100.00" r="1.6"/>
<circle cx="187.29" cy="117.36" r="1.6"/>
<circle cx="182.23" cy="134.06" r="1.6"/>
<circle cx="174.00" cy="149.45" r="1.6"/>
<circle cx="162.93" cy="162.93" r="1.6"/>
<circle cx="149.45" cy="174.00" r="1.6"/>
<circle cx="134.06" cy="182.23" r="1.6"/>
<circle cx="117.36" cy="187.29" r="1.6"/>
<circle cx="100.00" cy="189.00" r="1.6"/>
<circle cx="82.64" cy="187.29" r="1.6"/>
<circle cx="65.94" cy="182.23" r="1.6"/>
<circle cx="50.55" cy="174.00" r="1.6"/>
<circle cx="37.07" cy="162.93" r="1.6"/>
<circle cx="26.00" cy="149.45" r="1.6"/>
<circle cx="17.77" cy="134.06" r="1.6"/>
<circle cx="12.71" cy="117.36" r="1.6"/>
<circle cx="11.00" cy="100.00" r="1.6"/>
<circle cx="12.71" cy="82.64" r="1.6"/>
<circle cx="17.77" cy="65.94" r="1.6"/>
<circle cx="26.00" cy="50.55" r="1.6"/>
<circle cx="37.07" cy="37.07" r="1.6"/>
<circle cx="50.55" cy="26.00" r="1.6"/>
<circle cx="65.94" cy="17.77" r="1.6"/>
<circle cx="82.64" cy="12.71" r="1.6"/>
<circle cx="100.00" cy="11.00" r="1.6"/>
<circle cx="117.36" cy="12.71" r="1.6"/>
<circle cx="134.06" cy="17.77" r="1.6"/>
<circle cx="149.45" cy="26.00" r="1.6"/>
<circle cx="162.93" cy="37.07" r="1.6"/>
<circle cx="174.00" cy="50.55" r="1.6"/>
<circle cx="182.23" cy="65.94" r="1.6"/>
<circle cx="187.29" cy="82.64" r="1.6"/>
</g>
<polygon points="186.00,100.00 175.06,111.89 181.79,126.58 167.72,134.50 169.58,150.55 153.74,153.74 150.55,169.58 134.50,167.72 126.58,181.79 111.89,175.06 100.00,186.00 88.11,175.06 73.42,181.79 65.50,167.72 49.45,169.58 46.26,153.74 30.42,150.55 32.28,134.50 18.21,126.58 24.94,111.89 14.00,100.00 24.94,88.11 18.21,73.42 32.28,65.50 30.42,49.45 46.26,46.26 49.45,30.42 65.50,32.28 73.42,18.21 88.11,24.94 100.00,14.00 111.89,24.94 126.58,18.21 134.50,32.28 150.55,30.42 153.74,46.26 169.58,49.45 167.72,65.50 181.79,73.42 175.06,88.11 186.00,100.00 " stroke-width="0.7"/>
<circle cx="100" cy="100" r="76" stroke-width="0.6"/>
<g transform="translate(163.00,100.00) rotate(90.00) scale(0.85)" stroke-width="0.9" stroke-linecap="round" stroke-linejoin="round">
<path d="M -7,1 C -4,-3 -1,-1 0,1 C 1,-1 4,-3 7,1 M 0,1 L 0,4 M 0,4 L -2,6 M 0,4 L 2,6"/>
</g>
<g transform="translate(150.97,137.03) rotate(126.00) scale(0.85)" stroke-width="0.9" stroke-linecap="round" stroke-linejoin="round">
<path d="M -7,1 C -4,-3 -1,-1 0,1 C 1,-1 4,-3 7,1 M 0,1 L 0,4 M 0,4 L -2,6 M 0,4 L 2,6"/>
</g>
<g transform="translate(119.47,159.92) rotate(162.00) scale(0.85)" stroke-width="0.9" stroke-linecap="round" stroke-linejoin="round">
<path d="M -7,1 C -4,-3 -1,-1 0,1 C 1,-1 4,-3 7,1 M 0,1 L 0,4 M 0,4 L -2,6 M 0,4 L 2,6"/>
</g>
<g transform="translate(80.53,159.92) rotate(198.00) scale(0.85)" stroke-width="0.9" stroke-linecap="round" stroke-linejoin="round">
<path d="M -7,1 C -4,-3 -1,-1 0,1 C 1,-1 4,-3 7,1 M 0,1 L 0,4 M 0,4 L -2,6 M 0,4 L 2,6"/>
</g>
<g transform="translate(49.03,137.03) rotate(234.00) scale(0.85)" stroke-width="0.9" stroke-linecap="round" stroke-linejoin="round">
<path d="M -7,1 C -4,-3 -1,-1 0,1 C 1,-1 4,-3 7,1 M 0,1 L 0,4 M 0,4 L -2,6 M 0,4 L 2,6"/>
</g>
<g transform="translate(37.00,100.00) rotate(270.00) scale(0.85)" stroke-width="0.9" stroke-linecap="round" stroke-linejoin="round">
<path d="M -7,1 C -4,-3 -1,-1 0,1 C 1,-1 4,-3 7,1 M 0,1 L 0,4 M 0,4 L -2,6 M 0,4 L 2,6"/>
</g>
<g transform="translate(49.03,62.97) rotate(306.00) scale(0.85)" stroke-width="0.9" stroke-linecap="round" stroke-linejoin="round">
<path d="M -7,1 C -4,-3 -1,-1 0,1 C 1,-1 4,-3 7,1 M 0,1 L 0,4 M 0,4 L -2,6 M 0,4 L 2,6"/>
</g>
<g transform="translate(80.53,40.08) rotate(342.00) scale(0.85)" stroke-width="0.9" stroke-linecap="round" stroke-linejoin="round">
<path d="M -7,1 C -4,-3 -1,-1 0,1 C 1,-1 4,-3 7,1 M 0,1 L 0,4 M 0,4 L -2,6 M 0,4 L 2,6"/>
</g>
<g transform="translate(119.47,40.08) rotate(378.00) scale(0.85)" stroke-width="0.9" stroke-linecap="round" stroke-linejoin="round">
<path d="M -7,1 C -4,-3 -1,-1 0,1 C 1,-1 4,-3 7,1 M 0,1 L 0,4 M 0,4 L -2,6 M 0,4 L 2,6"/>
</g>
<g transform="translate(150.97,62.97) rotate(414.00) scale(0.85)" stroke-width="0.9" stroke-linecap="round" stroke-linejoin="round">
<path d="M -7,1 C -4,-3 -1,-1 0,1 C 1,-1 4,-3 7,1 M 0,1 L 0,4 M 0,4 L -2,6 M 0,4 L 2,6"/>
</g>
<clipPath id="hatchClip"><path d="M 100,45 a 55,55 0 1,0 0.01,0 Z M 100,70 a 30,30 0 1,1 0.01,0 Z" fill-rule="evenodd"/></clipPath>
<g clip-path="url(#hatchClip)" stroke-width="0.45">
<line x1="-180" y1="-20" x2="60" y2="220"/>
<line x1="-172" y1="-20" x2="68" y2="220"/>
<line x1="-164" y1="-20" x2="76" y2="220"/>
<line x1="-156" y1="-20" x2="84" y2="220"/>
<line x1="-148" y1="-20" x2="92" y2="220"/>
<line x1="-140" y1="-20" x2="100" y2="220"/>
<line x1="-132" y1="-20" x2="108" y2="220"/>
<line x1="-124" y1="-20" x2="116" y2="220"/>
<line x1="-116" y1="-20" x2="124" y2="220"/>
<line x1="-108" y1="-20" x2="132" y2="220"/>
<line x1="-100" y1="-20" x2="140" y2="220"/>
<line x1="-92" y1="-20" x2="148" y2="220"/>
<line x1="-84" y1="-20" x2="156" y2="220"/>
<line x1="-76" y1="-20" x2="164" y2="220"/>
<line x1="-68" y1="-20" x2="172" y2="220"/>
<line x1="-60" y1="-20" x2="180" y2="220"/>
<line x1="-52" y1="-20" x2="188" y2="220"/>
<line x1="-44" y1="-20" x2="196" y2="220"/>
<line x1="-36" y1="-20" x2="204" y2="220"/>
<line x1="-28" y1="-20" x2="212" y2="220"/>
<line x1="-20" y1="-20" x2="220" y2="220"/>
<line x1="-12" y1="-20" x2="228" y2="220"/>
<line x1="-4" y1="-20" x2="236" y2="220"/>
<line x1="4" y1="-20" x2="244" y2="220"/>
<line x1="12" y1="-20" x2="252" y2="220"/>
<line x1="20" y1="-20" x2="260" y2="220"/>
<line x1="28" y1="-20" x2="268" y2="220"/>
<line x1="36" y1="-20" x2="276" y2="220"/>
<line x1="44" y1="-20" x2="284" y2="220"/>
<line x1="52" y1="-20" x2="292" y2="220"/>
<line x1="60" y1="-20" x2="300" y2="220"/>
<line x1="68" y1="-20" x2="308" y2="220"/>
<line x1="76" y1="-20" x2="316" y2="220"/>
<line x1="84" y1="-20" x2="324" y2="220"/>
<line x1="92" y1="-20" x2="332" y2="220"/>
<line x1="100" y1="-20" x2="340" y2="220"/>
<line x1="108" y1="-20" x2="348" y2="220"/>
<line x1="116" y1="-20" x2="356" y2="220"/>
<line x1="124" y1="-20" x2="364" y2="220"/>
<line x1="132" y1="-20" x2="372" y2="220"/>
<line x1="140" y1="-20" x2="380" y2="220"/>
<line x1="-180" y1="220" x2="60" y2="-20"/>
<line x1="-172" y1="220" x2="68" y2="-20"/>
<line x1="-164" y1="220" x2="76" y2="-20"/>
<line x1="-156" y1="220" x2="84" y2="-20"/>
<line x1="-148" y1="220" x2="92" y2="-20"/>
<line x1="-140" y1="220" x2="100" y2="-20"/>
<line x1="-132" y1="220" x2="108" y2="-20"/>
<line x1="-124" y1="220" x2="116" y2="-20"/>
<line x1="-116" y1="220" x2="124" y2="-20"/>
<line x1="-108" y1="220" x2="132" y2="-20"/>
<line x1="-100" y1="220" x2="140" y2="-20"/>
<line x1="-92" y1="220" x2="148" y2="-20"/>
<line x1="-84" y1="220" x2="156" y2="-20"/>
<line x1="-76" y1="220" x2="164" y2="-20"/>
<line x1="-68" y1="220" x2="172" y2="-20"/>
<line x1="-60" y1="220" x2="180" y2="-20"/>
<line x1="-52" y1="220" x2="188" y2="-20"/>
<line x1="-44" y1="220" x2="196" y2="-20"/>
<line x1="-36" y1="220" x2="204" y2="-20"/>
<line x1="-28" y1="220" x2="212" y2="-20"/>
<line x1="-20" y1="220" x2="220" y2="-20"/>
<line x1="-12" y1="220" x2="228" y2="-20"/>
<line x1="-4" y1="220" x2="236" y2="-20"/>
<line x1="4" y1="220" x2="244" y2="-20"/>
<line x1="12" y1="220" x2="252" y2="-20"/>
<line x1="20" y1="220" x2="260" y2="-20"/>
<line x1="28" y1="220" x2="268" y2="-20"/>
<line x1="36" y1="220" x2="276" y2="-20"/>
<line x1="44" y1="220" x2="284" y2="-20"/>
<line x1="52" y1="220" x2="292" y2="-20"/>
<line x1="60" y1="220" x2="300" y2="-20"/>
<line x1="68" y1="220" x2="308" y2="-20"/>
<line x1="76" y1="220" x2="316" y2="-20"/>
<line x1="84" y1="220" x2="324" y2="-20"/>
<line x1="92" y1="220" x2="332" y2="-20"/>
<line x1="100" y1="220" x2="340" y2="-20"/>
<line x1="108" y1="220" x2="348" y2="-20"/>
<line x1="116" y1="220" x2="356" y2="-20"/>
<line x1="124" y1="220" x2="364" y2="-20"/>
<line x1="132" y1="220" x2="372" y2="-20"/>
<line x1="140" y1="220" x2="380" y2="-20"/>
</g>
<circle cx="100" cy="100" r="55" stroke-width="0.6"/>
<circle cx="100" cy="100" r="30" stroke-width="0.6"/>
<polygon points="100.00,73.00 103.40,89.54 115.87,78.16 108.90,93.53 125.68,91.66 111.00,100.00 125.68,108.34 108.90,106.47 115.87,121.84 103.40,110.46 100.00,127.00 96.60,110.46 84.13,121.84 91.10,106.47 74.32,108.34 89.00,100.00 74.32,91.66 91.10,93.53 84.13,78.16 96.60,89.54 " fill="currentColor" stroke="currentColor" stroke-width="0.6" stroke-linejoin="round"/>
<polygon points="100.00,78.00 102.47,92.39 112.93,82.20 106.47,95.30 120.92,93.20 108.00,100.00 120.92,106.80 106.47,104.70 112.93,117.80 102.47,107.61 100.00,122.00 97.53,107.61 87.07,117.80 93.53,104.70 79.08,106.80 92.00,100.00 79.08,93.20 93.53,95.30 87.07,82.20 97.53,92.39 " fill="none" stroke="#f4f1ea" stroke-opacity="0.5" stroke-width="0.4"/>
</g>
</svg>
