<svg viewBox="0 0 800 60" xmlns="http://www.w3.org/2000/svg" fill="none" stroke="currentColor">
  <path d="M370,30 C300,30 260,10 200,30 C140,50 100,10 40,30" stroke-width="1.4" opacity="0.75"/>
  <path d="M430,30 C500,30 540,10 600,30 C660,50 700,10 760,30" stroke-width="1.4" opacity="0.75"/>
  <g transform="translate(40,30)">
    <path d="M0,0 C-8,-8 -8,-18 0,-22 C8,-18 8,-4 -2,-2 C-6,-1 -8,3 -4,6" stroke-width="1.4"/>
  </g>
  <g transform="translate(760,30) scale(-1,1)">
    <path d="M0,0 C-8,-8 -8,-18 0,-22 C8,-18 8,-4 -2,-2 C-6,-1 -8,3 -4,6" stroke-width="1.4"/>
  </g>
  <g transform="translate(400,30)" stroke="none" fill="currentColor">
    <path d="M0,-18 C6,-10 6,10 0,18 C-6,10 -6,-10 0,-18 Z"/>
    <path d="M0,-14 C10,-6 10,6 0,14 C-3,6 -3,-6 0,-14 Z" opacity="0.6" transform="rotate(35)"/>
    <path d="M0,-14 C10,-6 10,6 0,14 C-3,6 -3,-6 0,-14 Z" opacity="0.6" transform="rotate(-35)"/>
  </g>
</svg>
